<?xml version="1.0" standalone="no"?>
<!DOCTYPE svg PUBLIC "-//W3C//DTD SVG 20010904//EN"
 "http://www.w3.org/TR/2001/REC-SVG-20010904/DTD/svg10.dtd">
<svg version="1.0" xmlns="http://www.w3.org/2000/svg"
 width="500.000000pt" height="500.000000pt" viewBox="0 0 500.000000 500.000000"
 preserveAspectRatio="xMidYMid meet">

<defs>
  <clipPath id="circleClip">
    <circle cx="2500" cy="2500" r="2500" />
  </clipPath>
</defs>

<g transform="translate(0.000000,500.000000) scale(0.100000,-0.100000)"
fill="#000000" stroke="none" clip-path="url(#circleClip)">
<path d="M0 2500 l0 -2500 2500 0 2500 0 0 2500 0 2500 -2500 0 -2500 0 0
-2500z m1420 497 c34 -31 36 -31 53 -14 10 10 26 17 35 15 24 -5 28 -47 5 -63
-17 -13 -16 -16 20 -52 20 -21 37 -46 37 -54 0 -25 -76 -93 -96 -85 -17 6 -17
6 -1 -12 9 -10 17 -28 17 -40 0 -22 -64 -92 -84 -92 -7 0 -34 21 -62 48 -27
26 -59 54 -70 62 -17 14 -18 13 -7 -1 11 -13 -3 -31 -92 -119 l-105 -103 50
-53 c27 -29 50 -59 50 -67 0 -15 -68 -87 -82 -87 -3 0 -18 4 -32 10 -19 7 -26
6 -26 -2 0 -7 -14 -27 -32 -45 -42 -43 -73 -43 -119 2 -34 32 -37 33 -42 14
-8 -30 -61 -23 -65 9 -2 13 3 25 12 28 23 9 20 22 -14 61 -17 18 -30 42 -30
52 0 18 64 91 80 91 4 0 6 17 3 38 -5 34 -1 42 27 65 17 15 41 27 52 27 11 0
52 -30 91 -67 40 -38 63 -58 52 -45 l-19 23 105 104 105 104 -48 53 c-26 29
-48 63 -48 74 0 32 66 87 93 78 12 -4 24 -11 25 -15 6 -16 18 -9 19 12 2 28
53 76 83 78 16 0 38 -11 60 -32z m825 -270 c4 -24 10 -48 13 -54 4 -6 33 -12
65 -15 77 -6 103 -31 118 -113 17 -91 15 -90 54 -50 l34 37 -21 28 c-27 37
-19 56 34 80 81 37 162 19 191 -43 9 -19 17 -44 17 -55 0 -41 20 -31 45 22 31
66 62 87 134 95 59 6 60 8 76 84 5 25 9 28 42 25 48 -4 52 -20 58 -218 6 -202
4 -205 -91 -206 -39 -1 -76 -4 -81 -7 -18 -11 -82 13 -112 43 -35 36 -41 37
-41 7 0 -13 -5 -28 -12 -35 -14 -14 -62 -16 -87 -3 -12 7 -31 5 -59 -4 -58
-21 -108 -3 -142 49 l-25 39 -10 -34 c-14 -49 -23 -59 -50 -59 -40 0 -55 25
-56 93 -1 88 -10 111 -41 115 -21 3 -28 -3 -37 -29 -6 -18 -11 -58 -11 -90 0
-80 -35 -111 -85 -75 -17 12 -19 27 -17 192 3 224 3 224 52 224 38 0 39 -1 45
-43z m-191 -1 c14 -9 33 -28 43 -42 16 -26 16 -27 -6 -45 -30 -24 -45 -24 -80
2 -19 14 -39 19 -66 17 -53 -4 -80 -42 -80 -113 0 -73 26 -109 84 -113 35 -3
45 1 70 29 28 30 32 31 60 20 40 -17 44 -34 18 -72 -33 -50 -78 -71 -146 -71
-120 0 -191 78 -191 209 1 103 58 185 138 198 20 4 41 8 47 9 19 5 85 -12 109
-28z m1729 12 c16 -13 103 -236 129 -332 14 -53 6 -66 -44 -66 -21 0 -33 9
-52 39 -27 42 -56 53 -114 44 -26 -5 -37 -14 -50 -40 -16 -33 -44 -48 -79 -41
-30 6 -20 71 35 221 64 176 72 187 120 187 21 0 46 -6 55 -12z m258 2 c18 -10
19 -23 19 -196 l0 -184 -25 -12 c-19 -8 -31 -8 -51 0 l-25 12 3 185 c2 152 6
187 18 195 20 13 37 12 61 0z m-706 -88 c63 -11 61 -53 -5 -141 -22 -29 -40
-59 -40 -66 0 -15 22 -25 55 -25 45 0 54 -65 11 -76 -11 -2 -64 -4 -116 -2
-94 3 -95 3 -109 32 -8 18 -10 34 -5 41 5 7 28 36 52 65 23 28 42 58 42 66 0
15 -6 18 -53 29 -25 5 -28 10 -25 37 2 25 9 34 28 39 33 9 115 10 165 1z m173
-224 c26 -26 0 -88 -37 -88 -27 0 -61 30 -61 54 0 31 18 46 55 46 17 0 36 -5
43 -12z"/>
<path d="M1400 2800 c0 -5 5 -10 11 -10 5 0 7 5 4 10 -3 6 -8 10 -11 10 -2 0
-4 -4 -4 -10z"/>
<path d="M2916 2541 c-24 -26 -18 -79 11 -98 19 -13 24 -12 42 6 27 27 27 65
1 91 -25 25 -32 25 -54 1z"/>
</g>
</svg>
